# xmcd CD database file
#
# Track frame offsets:
#	150
#	21811
#	35996
#	52268
#	69114
#	84468
#	104726
#	119964
#	131908
#	147713
#	162784
#	181165
#	195008
#	207349
#	223553
#	237553
#	249673
#	266527
#	280410
#	294055
#	312549
#	331335
#
# Disc length: 4637 seconds
#
# Revision: 0
# Processed by: cddbd v1.5.1PL0 Copyright (c) Steve Scherf et al.
# Submitted via: CDex 1.51
#
DISCID=60121b16
DTITLE=Various Artist - A Taste of Country
DYEAR=2002
DGENRE=Country
TTITLE0=Earl Scruggs/Foggy Mountain Breakdown
TTITLE1=Keith Urban/I Wanna Be Your Man (Forever)
TTITLE2=Bredon Walmsley/I Should Sing the Blues
TTITLE3=Dixie Chicks/Wide Open Spaces
TTITLE4=Billy Bob Thornton/Angelina
TTITLE5=Willie Nelson/This Face
TTITLE6=Tania Kernaghan/Goin' Bush
TTITLE7=Josh Arnold/Headin' for the Country
TTITLE8=Gillian Welch and Alison Krauss/I'll Fly Away
TTITLE9=Alison Krauss/Let me Touch You For a While
TTITLE10=Gina Jeffreys/Angel
TTITLE11=Robert Earl Keen/My Home Ain't in the Hall of Fame
TTITLE12=Melinda Schneider/Some Girls
TTITLE13=Adam Brand/When I Get my Wheels
TTITLE14=Sherrie Austin/In Our Own Sweet Time
TTITLE15=Tex Perkins/Another Rain Song
TTITLE16=Lucinda Williams/Reason to Cry
TTITLE17=Ryan Adams/To Be Young (Is to be Sad, Is to be High)
TTITLE18=Jamie O'Neal/When I Think About Angels
TTITLE19=Jimmy Little/Resonate in Blue
TTITLE20=Clem Snide/Let's Explode
TTITLE21=Kylie Sackley/Never Give Up on Love
EXTD=YEAR: 2002
EXTT0=
EXTT1=
EXTT2=
EXTT3=
EXTT4=
EXTT5=
EXTT6=
EXTT7=
EXTT8=
EXTT9=
EXTT10=
EXTT11=
EXTT12=
EXTT13=
EXTT14=
EXTT15=
EXTT16=
EXTT17=
EXTT18=
EXTT19=
EXTT20=
EXTT21=
PLAYORDER=
